<svg width="38" height="25" viewBox="0 0 38 25" fill="none" xmlns="http://www.w3.org/2000/svg">
<path d="M28 0H30C34.4183 0 38 3.58172 38 8V17C38 21.4183 34.4183 25 30 25H28V0Z" fill="#D71F2E"/>
<path d="M21 3C21 1.34315 22.3431 0 24 0H28V25H24C22.3431 25 21 23.6569 21 22V3Z" fill="#D71F2E"/>
<path d="M22 3C22 1.89543 22.8954 1 24 1H29V24H24C22.8954 24 22 23.1046 22 22V3Z" fill="white"/>
<path d="M29 1H30C33.866 1 37 4.13401 37 8V17C37 20.866 33.866 24 30 24H29V1Z" fill="white"/>
<path fill-rule="evenodd" clip-rule="evenodd" d="M29.4995 22.9584C23 23 23 23.5982 23 19.8582V5.20777C23 1.5 23 1.99999 29.4995 2.03553C33.1442 2.03553 36 4.97922 36 8.73809V16.2559C36 20.0147 33.1442 22.9584 29.4995 22.9584Z" fill="#023EA5"/>
<path d="M27 7C27 6.44772 27.4477 6 28 6C30.2091 6 32 7.79086 32 10V15C32 17.2091 30.2091 19 28 19C27.4477 19 27 18.5523 27 18V7Z" fill="white"/>
<path d="M29 8.2C29 8.08954 29.0895 8 29.2 8C29.6418 8 30 8.35817 30 8.8V16.2C30 16.6418 29.6418 17 29.2 17C29.0895 17 29 16.9105 29 16.8V8.2Z" fill="#D71F2E"/>
<mask id="mask0_2_77" style="mask-type:luminance" maskUnits="userSpaceOnUse" x="0" y="0" width="20" height="26">
<path d="M0 12.5014V0H19.983V25.0028H0V12.5014Z" fill="white"/>
</mask>
<g mask="url(#mask0_2_77)">
<path fill-rule="evenodd" clip-rule="evenodd" d="M10.967 -0.000183105H4.699C2.108 -0.000183105 0 2.10782 0 4.69982V20.4968C0 22.9848 2.019 25.0028 4.5 25.0028C6.982 25.0028 9.001 22.9848 9.001 20.5028V18.8898L11.821 23.1078C12.689 24.3048 14.05 25.0008 15.483 25.0008C17.964 25.0008 19.983 22.9828 19.983 20.5008C19.983 19.6758 19.75 18.8618 19.31 18.1478C19.3 18.1288 19.288 18.1118 19.277 18.0938L17.018 14.7008C17.167 14.5598 17.31 14.4128 17.448 14.2608C19.06 12.4868 19.854 10.0968 19.627 7.70382C19.213 3.38382 15.409 -0.000183105 10.967 -0.000183105Z" fill="#D71F2E"/>
</g>
<path fill-rule="evenodd" clip-rule="evenodd" d="M10.967 0.999756C14.9 0.999756 18.266 3.98576 18.631 7.79776C18.832 9.91176 18.131 12.0218 16.709 13.5878C16.397 13.9298 16.058 14.2408 15.695 14.5168L18.43 18.6268C18.44 18.6408 18.45 18.6568 18.459 18.6708C18.801 19.2278 18.983 19.8608 18.983 20.5008C18.983 22.4318 17.413 24.0008 15.483 24.0008C14.369 24.0008 13.311 23.4588 12.653 22.5518L8.32 16.0718H8L8.001 20.5028C8.001 22.4328 6.43 24.0028 4.5 24.0028C2.57 24.0028 1 22.4328 1 20.5028V4.69976C1 2.65976 2.659 0.999756 4.699 0.999756H10.967Z" fill="white"/>
<path fill-rule="evenodd" clip-rule="evenodd" d="M6.49982 14.5394H9.12182L13.8668 21.6394C14.2298 22.1404 14.8158 22.4704 15.4828 22.4704C16.5868 22.4704 17.4828 21.5744 17.4828 20.4704C17.4828 20.0854 17.3698 19.7304 17.1818 19.4264L13.5738 14.0044C14.3348 13.6684 15.0278 13.1744 15.5988 12.5464C16.7378 11.2934 17.2988 9.60238 17.1378 7.90838C16.8458 4.85738 14.1348 2.46838 10.9668 2.46838H4.69882C3.48582 2.46838 2.49982 3.45538 2.49982 4.66838V20.4714C2.49982 21.5754 3.39582 22.4714 4.49982 22.4714C5.60382 22.4714 6.49982 21.5754 6.49982 20.4714V14.5394Z" fill="#023EA5"/>
<path fill-rule="evenodd" clip-rule="evenodd" d="M6.49982 6.46814H10.9668C12.0968 6.46814 13.0578 7.26814 13.1558 8.28814C13.2108 8.87114 13.0278 9.42714 12.6388 9.85614C12.2498 10.2831 11.7078 10.5361 11.0478 10.5371L6.49982 10.5401V6.46814Z" fill="white"/>
<path fill-rule="evenodd" clip-rule="evenodd" d="M11.4895 8.50183C11.4895 8.22783 11.2685 8.00583 10.9955 8.00283L8.09949 8.00183V9.00083H10.9955C11.2685 8.99783 11.4895 8.77583 11.4895 8.50183Z" fill="#D71F2E"/>
</svg>
